<svg width="20" height="21" viewBox="0 0 20 21" fill="none" xmlns="http://www.w3.org/2000/svg">
<path fill-rule="evenodd" clip-rule="evenodd" d="M12.0915 2.72143C11.6433 0.424076 8.35654 0.424076 7.90831 2.72143C7.63558 4.11939 6.09462 4.86148 4.8316 4.20309C2.75602 3.12113 0.706682 5.69092 2.22338 7.4737C3.14631 8.55854 2.76572 10.226 1.46349 10.803C-0.676518 11.7511 0.0548825 14.9556 2.39436 14.8814C3.81796 14.8362 4.88434 16.1734 4.52351 17.5512C3.93053 19.8155 6.89191 21.2417 8.29254 19.3663C9.14474 18.2251 10.8551 18.2251 11.7073 19.3663C13.1079 21.2417 16.0693 19.8155 15.4763 17.5512C15.1155 16.1734 16.1819 14.8362 17.6055 14.8814C19.945 14.9556 20.6764 11.7511 18.5363 10.803C17.2341 10.226 16.8535 8.55854 17.7765 7.4737C19.2932 5.69092 17.2438 3.12113 15.1682 4.20309C13.9052 4.86148 12.3643 4.11939 12.0915 2.72143ZM9.99994 14C11.6568 14 12.9999 12.6569 12.9999 11C12.9999 9.34309 11.6568 7.99999 9.99994 7.99999C8.34304 7.99999 6.99994 9.34309 6.99994 11C6.99994 12.6569 8.34304 14 9.99994 14Z" fill="#96A7AF"/>
</svg>
